<svg data-name="Layer 2" xmlns="http://www.w3.org/2000/svg" viewBox="0 0 652.19 260.78">
  <path d="M66.82 0v256.97H0V0zm233.01 0v256.97h-58.41l-.08-173.48-23.25 173.48h-41.43L152.14 87.45l-.08 169.52H93.65V0h86.46c2.56 15.45 5.21 33.66 7.93 54.63l9.49 65.36L212.89 0zm26.82 0h50c32.27 0 54.1 1.48 65.47 4.44s20.02 7.83 25.95 14.6c5.92 6.77 9.63 14.31 11.11 22.62s2.22 24.63 2.22 48.97v90c0 23.07-1.09 38.49-3.25 46.27-2.17 7.78-5.95 13.86-11.35 18.25s-12.06 7.46-20 9.21-19.9 2.62-35.87 2.62h-84.28zm66.82 43.97v169.04c9.63 0 15.55-1.93 17.78-5.79 2.22-3.86 3.33-14.36 3.33-31.51V75.87q0-17.46-1.11-22.38c-.74-3.28-2.44-5.69-5.08-7.22-2.65-1.53-7.62-2.3-14.92-2.3M568.55 0v60.83c5.29-6.15 11.19-10.74 17.7-13.76s13.57-4.53 21.19-4.53c8.78 0 16.4 1.38 22.86 4.13 6.45 2.75 11.37 6.61 14.76 11.59s5.42 9.84 6.11 14.6 1.03 14.92 1.03 30.47v94.92c0 15.45-1.03 26.96-3.09 34.52q-3.09 11.355-14.52 19.68c-7.62 5.55-16.67 8.33-27.14 8.33-7.51 0-14.52-1.64-21.03-4.93s-12.46-8.22-17.86-14.79l-4.13 15.91h-60V0zm19.52 106.19c0-10.9-.69-18.01-2.06-21.35-1.38-3.33-4.07-5-8.09-5s-6.46 1.46-7.62 4.36c-1.17 2.91-1.75 10.24-1.75 21.98v90.79q0 16.98 1.98 21.75c1.32 3.17 3.94 4.76 7.86 4.76s6.64-1.64 7.86-4.92c1.21-3.28 1.83-11.16 1.83-23.65v-88.73Z" data-name="Layer 1"/>
</svg>