<svg id="Ebene_1" data-name="Ebene 1" xmlns="http://www.w3.org/2000/svg" xmlns:xlink="http://www.w3.org/1999/xlink" viewBox="0 0 415.77 67.38">
  <defs>
    <linearGradient id="Unbenannter_Verlauf" y1="199.85" x2="1" y2="199.85" gradientTransform="matrix(56.47 0 0 -56.47 .29 11321.2)" gradientUnits="userSpaceOnUse">
      <stop offset="0" stop-color="#fbd446"/>
      <stop offset=".06" stop-color="#fbd446"/>
      <stop offset="1" stop-color="#e2b512"/>
    </linearGradient>
    <linearGradient id="Unbenannter_Verlauf_2" y1="199.86" x2="1" y2="199.86" gradientTransform="matrix(0 424.84 424.84 0 -84775.83 94.11)" gradientUnits="userSpaceOnUse">
      <stop offset="0" stop-color="#e2b512"/>
      <stop offset=".5" stop-color="#fbd446"/>
      <stop offset="1" stop-color="#e2b512"/>
    </linearGradient>
    <linearGradient id="Unbenannter_Verlauf_3" y1="199.86" y2="199.86" gradientTransform="matrix(0 425.14 425.14 0 -84796 62.18)" xlink:href="#Unbenannter_Verlauf_2"/>
    <linearGradient id="Unbenannter_Verlauf_4" y1="199.86" y2="199.86" gradientTransform="matrix(0 424.82 424.82 0 -84695.09 25.15)" xlink:href="#Unbenannter_Verlauf_2"/>
    <linearGradient id="Unbenannter_Verlauf_5" y1="199.86" y2="199.86" gradientTransform="matrix(0 425.23 425.23 0 -84746 -9.69)" xlink:href="#Unbenannter_Verlauf_2"/>
    <linearGradient id="Unbenannter_Verlauf_6" y1="199.86" y2="199.86" gradientTransform="matrix(0 424.86 424.86 0 -84621.33 -64.77)" xlink:href="#Unbenannter_Verlauf_2"/>
    <linearGradient id="Unbenannter_Verlauf_7" y1="199.86" y2="199.86" gradientTransform="matrix(0 424.96 424.96 0 -84587.82 -108.94)" xlink:href="#Unbenannter_Verlauf_2"/>
    <linearGradient id="Unbenannter_Verlauf_8" y1="199.86" y2="199.86" gradientTransform="matrix(0 425.22 425.22 0 -84607.3 -146.34)" xlink:href="#Unbenannter_Verlauf_2"/>
    <linearGradient id="Unbenannter_Verlauf_9" y1="199.86" y2="199.86" gradientTransform="matrix(0 424.96 424.96 0 -84523.11 -174.2)" xlink:href="#Unbenannter_Verlauf_2"/>
    <linearGradient id="Unbenannter_Verlauf_10" y1="199.86" y2="199.86" gradientTransform="matrix(0 425.26 425.26 0 -84543.98 -224.95)" xlink:href="#Unbenannter_Verlauf_2"/>
    <clipPath id="clip-path" transform="translate(-53.68 -63.74)">
      <path class="cls-1" d="M54 114.58v9.51s.27 4.36 4.58 2.1 8.75-4.51 8.75-4.51 1.24-.73 0-1.39-12.23-6.38-12.23-6.38a1.4 1.4 0 0 0-.47-.09c-.3 0-.64.14-.64.75m14.76-6.7c.08 2.2 0 10.92 0 10.92s-.31 2.33 1.82 1.3 9.19-4.78 10.78-5.6c2.15-1.11 0-2.13 0-2.13l-10.75-5.64a2.2 2.2 0 0 0-.92-.25c-.48 0-1 .28-.92 1.4m14.72-7.49c.09 2.2 0 10.92 0 10.92s-.3 2.33 1.82 1.3 9.2-4.78 10.78-5.6c2.15-1.12 0-2.14 0-2.14l-10.76-5.63a2.2 2.2 0 0 0-.92-.23c-.48 0-1 .28-.92 1.4M54 100.1c.08 2.2 0 10.92 0 10.92s-.31 2.33 1.82 1.3 9.19-4.78 10.78-5.6c2.15-1.11 0-2.14 0-2.14l-10.76-5.64a2.2 2.2 0 0 0-.91-.25c-.48 0-1 .28-.92 1.4m14.77-7.48c.09 2.2 0 10.92 0 10.92s-.31 2.33 1.82 1.3 9.2-4.77 10.78-5.6c2.15-1.11 0-2.14 0-2.14l-10.77-5.63a2.2 2.2 0 0 0-.91-.25c-.48 0-1 .27-.92 1.4m29.44-.29V104s-.16 1.71 1.39.92l9-4.64c4.17-2.15 0-4.24 0-4.24l-9-4.68a1.5 1.5 0 0 0-.66-.2c-.8 0-.7 1.21-.7 1.21M54 85c.11 2.24 0 11 0 11s-.31 2.33 1.82 1.3 9.2-4.78 10.78-5.6c2.15-1.12 0-2.14 0-2.14l-10.75-5.68a2.2 2.2 0 0 0-.92-.25c-.48 0-1 .27-.92 1.4m29.47-.3c.09 2.2 0 10.92 0 10.92S83.17 98 85.29 97s9.19-4.77 10.78-5.6c2.15-1.11 0-2.14 0-2.14l-10.75-5.68a2.2 2.2 0 0 0-.91-.25c-.48 0-1 .27-.92 1.4m-14.73-7.52c.09 2.2 0 10.92 0 10.92s-.31 2.33 1.82 1.3 9.2-4.78 10.78-5.6c2.15-1.11 0-2.14 0-2.14L70.6 76.06a2.2 2.2 0 0 0-.92-.25c-.48 0-1 .28-.92 1.4m-14.7-5.14v9.51c0 1.12 1.11.66 1.11.66l12.23-6.39c1.24-.66 0-1.39 0-1.39s-4.44-2.25-8.75-4.5a4.8 4.8 0 0 0-2.17-.65c-2.23 0-2.4 2.75-2.4 2.75"/>
    </clipPath>
    <clipPath id="clip-path-2" transform="translate(-53.68 -63.74)">
      <path class="cls-1" d="M140.45 69.51v39.39a26.6 26.6 0 0 1-.4 4.73 11.9 11.9 0 0 1-1.36 3.88 7.17 7.17 0 0 1-2.6 2.63 8.16 8.16 0 0 1-4.2 1 7.55 7.55 0 0 1-5.36-2 9.4 9.4 0 0 1-2.8-5.1l-7.36 2.1a17 17 0 0 0 24 10.27 14.05 14.05 0 0 0 4.92-4.69 18 18 0 0 0 2.4-6.15 33.3 33.3 0 0 0 .64-6.31V69.51Z"/>
    </clipPath>
    <clipPath id="clip-path-3" transform="translate(-53.68 -63.74)">
      <path class="cls-1" d="M182.31 88.44v20.38q0 5.74-2.8 9.18a9 9 0 0 1-7.36 3.44 8.54 8.54 0 0 1-4.32-1 7.17 7.17 0 0 1-2.64-2.59 10.8 10.8 0 0 1-1.32-3.76 27.4 27.4 0 0 1-.36-4.49V88.44H156v23.77a21.3 21.3 0 0 0 .84 6.07 14.4 14.4 0 0 0 2.56 5 11.7 11.7 0 0 0 4.4 3.36 15.3 15.3 0 0 0 6.36 1.21 13.9 13.9 0 0 0 7.56-2.14 12.43 12.43 0 0 0 4.84-5.22h.16c0 .81 0 1.82.08 3s.13 2.31.24 3.28h7.12q-.165-1.86-.24-4.29c-.075-2.43-.08-2.94-.08-4V88.44Z"/>
    </clipPath>
    <clipPath id="clip-path-4" transform="translate(-53.68 -63.74)">
      <path class="cls-1" d="M205.55 88.07a14.2 14.2 0 0 0-4.56 2.1 10.9 10.9 0 0 0-3.24 3.64 10.7 10.7 0 0 0-1.24 5.3 9.2 9.2 0 0 0 1 4.49 9.5 9.5 0 0 0 2.6 3 13 13 0 0 0 3.56 1.9q2 .69 3.88 1.17a33.7 33.7 0 0 1 7.4 2.43 4.2 4.2 0 0 1 2.52 4 5.05 5.05 0 0 1-.64 2.67 4.94 4.94 0 0 1-1.72 1.7 7.8 7.8 0 0 1-2.4.93 13 13 0 0 1-2.76.29 11.64 11.64 0 0 1-5.88-1.54 12.3 12.3 0 0 1-4.2-3.8l-5.36 4.61a16.5 16.5 0 0 0 6.84 5.18 22 22 0 0 0 8.44 1.7 24.2 24.2 0 0 0 5.6-.65 13.8 13.8 0 0 0 4.84-2.14 11.2 11.2 0 0 0 3.4-3.84 11.85 11.85 0 0 0 1.28-5.74 9.44 9.44 0 0 0-1-4.37 9.6 9.6 0 0 0-2.68-3.19 15.8 15.8 0 0 0-4-2.22 40 40 0 0 0-5-1.54 26.3 26.3 0 0 1-6.48-2.14 3.84 3.84 0 0 1-2.16-3.6 4.2 4.2 0 0 1 .6-2.31 4.9 4.9 0 0 1 1.6-1.54 7.6 7.6 0 0 1 2.28-.89 12 12 0 0 1 2.56-.28 10.24 10.24 0 0 1 5.2 1.33 9.9 9.9 0 0 1 3.6 3.44l5.2-4.45a13.1 13.1 0 0 0-5.92-4.71 20 20 0 0 0-7.88-1.62 20.4 20.4 0 0 0-5.28.69"/>
    </clipPath>
    <clipPath id="clip-path-5" transform="translate(-53.68 -63.74)">
      <path class="cls-1" d="M234.45 77.44v11h-7.28v6.23h7.28v20.78q0 6 2.84 9t8.2 3a20 20 0 0 0 3.4-.28 19 19 0 0 0 3-.77l-.24-6.23a9.2 9.2 0 0 1-2.16.67 12 12 0 0 1-2.24.22 5.09 5.09 0 0 1-4.08-1.49q-1.28-1.49-1.28-5V94.66H252v-6.22h-10.1v-11Z"/>
    </clipPath>
    <clipPath id="clip-path-6" transform="translate(-53.68 -63.74)">
      <path class="cls-1" d="m321.1 69.52-12.48 45.6h-.16l-13.2-45.6h-8.72l-13.28 45.6h-.16l-12.48-45.6h-8.56l16.64 57.25h8.24l13.76-46.01h.16l13.76 46.01h8.24l16.64-57.25z"/>
    </clipPath>
    <clipPath id="clip-path-7" transform="translate(-53.68 -63.74)">
      <path class="cls-1" d="M339.46 121.47a7.2 7.2 0 0 1-2.48-1 5.65 5.65 0 0 1-1.8-1.86 5.4 5.4 0 0 1-.68-2.83 5 5 0 0 1 1.6-3.88 10.24 10.24 0 0 1 4-2.18 26.4 26.4 0 0 1 5.44-1q3-.24 5.8-.24h1.84v2a11.66 11.66 0 0 1-2.84 8q-2.84 3.2-8.12 3.19a13.7 13.7 0 0 1-2.8-.28m-3.52-32.47a20.1 20.1 0 0 0-6.84 4.2l4 4.85a15.2 15.2 0 0 1 4.76-3.19 14.8 14.8 0 0 1 6-1.25 10.52 10.52 0 0 1 6.8 2.06q2.56 2.06 2.56 6.35V103q-4.8 0-9.52.4a34 34 0 0 0-8.48 1.74 14.7 14.7 0 0 0-6.08 3.88 9.86 9.86 0 0 0-2.32 6.91 10.9 10.9 0 0 0 1.32 5.58 11.2 11.2 0 0 0 3.32 3.64 13.6 13.6 0 0 0 4.44 2 19.5 19.5 0 0 0 4.68.6 15.6 15.6 0 0 0 7.48-1.7 14.6 14.6 0 0 0 5.24-4.77h.24a24 24 0 0 0 .64 5.5H361a21 21 0 0 1-.44-3.52q-.12-2.145-.12-4.08v-16.75a17.8 17.8 0 0 0-1-5.9 13.1 13.1 0 0 0-2.88-4.77 13.4 13.4 0 0 0-4.92-3.19 19.5 19.5 0 0 0-7.08-1.17 24.2 24.2 0 0 0-8.68 1.54"/>
    </clipPath>
    <clipPath id="clip-path-8" transform="translate(-53.68 -63.74)">
      <path class="cls-1" d="M371.22 77.44v11h-7.28v6.23h7.28v20.78q0 6 2.84 9t8.2 3a20 20 0 0 0 3.4-.28 19 19 0 0 0 3-.77l-.24-6.23a9 9 0 0 1-2.16.67 12 12 0 0 1-2.26.16 5.09 5.09 0 0 1-4.08-1.49q-1.28-1.49-1.28-5V94.66h10.08v-6.22h-10.06v-11Z"/>
    </clipPath>
    <clipPath id="clip-path-9" transform="translate(-53.68 -63.74)">
      <path class="cls-1" d="M404.22 88.84a18.6 18.6 0 0 0-10.68 10.51 21.7 21.7 0 0 0-1.54 8.25 21.4 21.4 0 0 0 1.56 8.33 18.8 18.8 0 0 0 4.28 6.35 19.3 19.3 0 0 0 6.44 4.09 22.2 22.2 0 0 0 8.12 1.45 20.15 20.15 0 0 0 8.16-1.58 16.3 16.3 0 0 0 6-4.41l-5-4.61a10.76 10.76 0 0 1-3.88 3.07 12.06 12.06 0 0 1-14.44-3 13.4 13.4 0 0 1-2.44-4.41 16.9 16.9 0 0 1 0-10.51 13.4 13.4 0 0 1 2.44-4.41 12 12 0 0 1 3.88-3 11.64 11.64 0 0 1 5.24-1.13 10.9 10.9 0 0 1 5.1 1.17 9.2 9.2 0 0 1 3.6 3.11l5.44-4.45a14.6 14.6 0 0 0-6.28-4.66 20.9 20.9 0 0 0-8-1.62 21.9 21.9 0 0 0-8 1.45"/>
    </clipPath>
    <clipPath id="clip-path-10" transform="translate(-53.68 -63.74)">
      <path class="cls-1" d="M432.18 65.63v61.14h7.52v-20.35q0-5.76 2.88-9.2a9.16 9.16 0 0 1 7.36-3.45 8.3 8.3 0 0 1 4.28 1 7.3 7.3 0 0 1 2.6 2.6 10.9 10.9 0 0 1 1.32 3.73 26.7 26.7 0 0 1 .36 4.46v21.24h7.5V103a21.3 21.3 0 0 0-.84-6.07 13.7 13.7 0 0 0-2.6-4.93 12.9 12.9 0 0 0-4.4-3.36 14.7 14.7 0 0 0-6.32-1.25 13.75 13.75 0 0 0-7.36 2 11.8 11.8 0 0 0-4.64 4.85h-.16V65.63Z"/>
    </clipPath>
    <style>
      .cls-1{fill:none}
    </style>
  </defs>
  <g style="clip-path:url(#clip-path)">
    <path style="fill:url(#Unbenannter_Verlauf)" d="M0 5.58h59.08v59.13H0z"/>
  </g>
  <g style="clip-path:url(#clip-path-2)">
    <path transform="rotate(-86.78 71.818 95.394)" style="fill:url(#Unbenannter_Verlauf_2)" d="M102.16 81.25h60.41v35.25h-60.41z"/>
  </g>
  <g style="clip-path:url(#clip-path-3)">
    <path transform="rotate(-86.78 112.52 104.656)" style="fill:url(#Unbenannter_Verlauf_3)" d="M152.45 89.97h41.24v36.32h-41.24z"/>
  </g>
  <g style="clip-path:url(#clip-path-4)">
    <path transform="rotate(-86.78 149.164 104.13)" style="fill:url(#Unbenannter_Verlauf_4)" d="M188.67 91.29h42.08v32.62h-42.08z"/>
  </g>
  <g style="clip-path:url(#clip-path-5)">
    <path transform="rotate(-86.78 179.03 98.95)" style="fill:url(#Unbenannter_Verlauf_5)" d="M213.93 88.64h51.29v27.57h-51.29z"/>
  </g>
  <g style="clip-path:url(#clip-path-6)">
    <path transform="rotate(-86.78 230.232 94.67)" style="fill:url(#Unbenannter_Verlauf_6)" d="M260.02 57.87h61.51v80.54h-61.51z"/>
  </g>
  <g style="clip-path:url(#clip-path-7)">
    <path transform="rotate(-86.78 283.353 104.081)" style="fill:url(#Unbenannter_Verlauf_7)" d="M322.79 89.37H365v36.38h-42.21z"/>
  </g>
  <g style="clip-path:url(#clip-path-8)">
    <path transform="rotate(-86.78 315.794 98.952)" style="fill:url(#Unbenannter_Verlauf_8)" d="M350.69 88.64h51.29v27.57h-51.29z"/>
  </g>
  <g style="clip-path:url(#clip-path-9)">
    <path transform="rotate(-86.78 348.757 104.122)" style="fill:url(#Unbenannter_Verlauf_9)" d="M388.15 89.21h42.31v36.78h-42.31z"/>
  </g>
  <g style="clip-path:url(#clip-path-10)">
    <path transform="rotate(-86.78 388.56 92.721)" style="fill:url(#Unbenannter_Verlauf_10)" d="M417.63 77.59h62.94v37.22h-62.94z"/>
  </g>
</svg>